<?xml version="1.0" standalone="no"?>
<!DOCTYPE svg PUBLIC "-//W3C//DTD SVG 20010904//EN"
 "http://www.w3.org/TR/2001/REC-SVG-20010904/DTD/svg10.dtd">
<svg version="1.0" xmlns="http://www.w3.org/2000/svg"
 width="379.000000pt" height="379.000000pt" viewBox="0 0 379.000000 379.000000"
 preserveAspectRatio="xMidYMid meet">
<metadata>
Created by potrace 1.11, written by Peter Selinger 2001-2013
</metadata>
<g transform="translate(0.000000,379.000000) scale(0.100000,-0.100000)"
fill="#000000" stroke="none">
<path d="M1467 3785 c-1 -2 -28 -5 -59 -9 -216 -22 -463 -153 -623 -328 -208
-228 -362 -525 -439 -843 -21 -87 -30 -134 -52 -270 -25 -155 -24 -508 2 -680
15 -98 61 -269 90 -332 8 -17 14 -34 14 -37 0 -4 21 -50 46 -103 122 -259 312
-526 513 -723 204 -199 421 -326 676 -395 94 -25 114 -29 230 -46 69 -11 388
-14 433 -5 13 3 51 8 85 11 317 32 698 184 987 393 117 85 131 109 93 154 -19
21 -57 16 -120 -15 -123 -62 -371 -139 -493 -152 -30 -4 -66 -9 -80 -11 -32
-5 -212 -5 -265 1 -123 13 -159 19 -250 40 -330 79 -682 300 -890 560 -22 28
-43 52 -46 55 -36 28 -197 320 -235 423 -46 128 -57 159 -75 227 -20 72 -42
165 -54 226 -4 25 -10 63 -30 199 -26 172 -26 570 -1 647 3 7 7 31 10 53 12
94 72 293 120 397 14 31 26 59 26 62 0 3 21 38 46 77 84 132 204 226 328 258
59 15 232 7 293 -14 85 -29 162 -98 206 -185 47 -93 56 -143 32 -170 -10 -11
-89 -63 -176 -115 -182 -110 -249 -158 -337 -240 -155 -143 -215 -299 -182
-467 33 -172 178 -378 439 -626 80 -75 185 -177 235 -227 245 -247 316 -400
249 -536 -31 -61 -120 -159 -220 -240 -80 -66 -94 -90 -67 -120 23 -25 69 -19
125 17 21 13 41 24 44 24 9 0 240 144 310 193 124 89 179 133 251 205 125 125
186 242 177 341 -11 125 -122 330 -267 491 -55 61 -319 324 -371 369 -200 173
-307 302 -339 411 -45 151 5 263 181 406 109 89 221 123 333 101 104 -20 329
-107 498 -193 56 -29 108 -51 116 -50 17 2 76 53 296 255 220 203 240 227 208
259 -16 16 -47 15 -97 -3 -108 -38 -181 -23 -344 69 -190 108 -324 172 -377
182 -37 8 -103 -22 -142 -64 -129 -137 -372 -337 -404 -330 -19 3 -18 3 -71
112 -70 148 -224 269 -373 296 -50 9 -207 20 -213 15z"/>
</g>
</svg>
